<?xml version="1.0" encoding="UTF-8"?>
<svg version="1.1" viewBox="0 0 800 800" xmlns="http://www.w3.org/2000/svg">
<defs>
<linearGradient id="a" x1="50%" x2="50%" y2="100%">
<stop stop-color="hsl(37, 99%, 67%)" offset="0"/>
<stop stop-color="hsl(316, 73%, 52%)" offset="1"/>
</linearGradient>
</defs>
<g fill="none" stroke="url(#a)" stroke-linecap="round" stroke-width="2">
<path transform="rotate(0 400 400)" d="m379.17 81.2q15.85 6.21 32.17 10.74 8.47 1.72 17.13 3.47 8.87 2 17.95 4.48 9.29 3.13 18.81 7.08 9.74 4.87 19.7 10.69 10.19 6.77 20.59 14.4 10.62 8.35 21.44 17.22 11.01 9.17 22.21 18.36 11.36 8.97 22.87 17.45 11.65 7.75 23.41 14.59 11.86 5.81 23.78 10.5 11.97 3.59 23.96 6.16 11.99 1.69 23.96 2.71 11.9 0.62 23.73 1.12 11.71 0.69 23.3 1.87 3.97 10.05 6.96 20.11 1.92 10.06 2.71 20.11-0.37 10.06-1.88 20.12-2.61 10.05-6.24 20.11-4.53 10.05-9.84 20.11-5.91 10.06-12.25 20.11-6.57 10.06-13.17 20.12-6.44 10.05-12.51 20.11-5.52 10.05-10.32 20.11-3.94 10.06-6.89 20.11-1.87 10.06-2.62 20.12 0.42 10.05 1.97 20.11 2.66 10.06 6.32 20.11 4.57 10.06 9.9 20.12 5.94 10.05 12.29 20.11 6.57 10.06 13.18 20.11-5.81 11.52-11.76 24.1-6.13 13.15-12.44 26.37-6.52 12.76-13.27 24.56-6.97 10.38-14.19 19-15.32 10.03-31.42 13.85-8.51-1.27-17.27-3.8-9.01-3.3-18.26-6.84-9.49-3.21-19.19-5.54-9.92-0.94-20.02-0.09-10.29 2.95-20.73 8.16-10.58 7.5-21.29 17.16-10.81 11.55-21.7 24.59-10.96 14.03-21.96 28.49-11.03 14.27-22.06 27.77-11.02 12.18-22 22.55-7.15-2.49-14.43-7.37-7.42-7.26-14.99-16.75-7.72-11.41-15.59-24.32-8.04-13.88-16.24-28.17-8.36-14.11-16.89-27.45-8.68-12.05-17.52-22.39-8.99-8.31-18.12-14.4-9.26-3.84-18.64-5.55-9.5 0.18-19.09 1.9-9.69 2.77-19.44 6.08-9.82 3.3-19.69 6.04-9.91 1.67-19.83 1.85-9.93-1.64-19.86-5.31-9.91-5.77-19.79-13.57-9.84-9.64-19.63-20.82-9.73-12.29-19.4-25.23-1.24-10.36-2.48-20.73-1.19-10.36-2.31-20.73-1-10.36-1.86-20.73-0.69-10.37-1.19-20.73-0.29-10.37-0.37-20.73 0.14-10.37 0.49-20.73 0.56-10.37 1.3-20.73 0.9-10.37 1.94-20.73 1.14-10.37 2.35-20.73 1.25-10.36 2.48-20.73 1.2-10.36 2.31-20.73 1-10.36 1.85-20.73 0.68-10.36 1.18-20.73 0.28-10.36 0.35-20.73-0.15-10.36-0.51-20.73 3.48-15.84 16.25-22.42 8.62-1.89 17.14-4.75 8.41-3.97 16.72-9.09 8.2-6.26 16.3-13.55 8.01-8.17 15.93-17.01 7.84-9.24 15.6-18.63 7.71-9.24 15.37-18.09 7.61-8.21 15.21-15.62 7.58-6.47 15.16-11.94 15.27-7.63 30.68-12.92 15.82-3.3 31.96-6.78 8.3-2.39 16.75-5.44 8.61-3.82 17.39-8.49 13.53-8.68 18.1-11.83" opacity=".05" stroke-dasharray="11 1"/>
<path transform="rotate(4.04 400 400)" d="m377.83 94.33q16.01 5.87 32.52 10.11 8.56 1.56 17.31 3.1 8.95 1.74 18.09 3.87 9.34 2.72 18.89 6.18 9.74 4.3 19.68 9.5 10.12 6.12 20.43 13.11 10.49 7.75 21.14 16.11 10.81 8.78 21.76 17.74 11.07 8.92 22.25 17.55 11.27 8.11 22.61 15.49 11.4 6.49 22.83 11.98 11.44 4.43 22.86 7.81 11.4 2.42 22.73 3.99 11.26 0.93 22.41 1.45 18.08 5.49 27.41 20.38 1.26 9.77 1.48 19.53-0.83 9.77-2.69 19.53-2.83 9.77-6.56 19.54-4.51 9.76-9.69 19.53-5.7 9.77-11.75 19.53-6.24 9.77-12.48 19.53-6.08 9.77-11.82 19.54-5.24 9.76-9.82 19.53-3.81 9.76-6.74 19.53-1.95 9.77-2.89 19.53 0.12 9.77 1.29 19.54 2.17 9.76 5.3 19.53 4 9.77 8.74 19.53 5.37 9.77 11.2 19.54 6.13 9.76 12.39 19.53-5.54 12.14-11.18 24.72-5.77 12.56-11.69 24.66-6.09 11.18-12.36 21.07-13.23 13.76-27.11 21.81-15.01-0.69-30.72-5.03-8.26-3.28-16.74-6.43-8.71-2.54-17.64-4.01-9.13 0.01-18.45 1.82-9.51 3.8-19.19 9.69-9.84 7.95-19.81 17.8-10.11 11.47-20.32 24.19-10.31 13.52-20.69 27.31-10.45 13.55-20.93 26.34-10.51 11.53-21.03 21.41-7.1-2.39-14.35-6.95-7.39-6.75-14.94-15.56-7.7-10.6-15.56-22.65-8.02-13.07-16.19-26.64-8.33-13.57-16.81-26.62-8.62-12.05-17.38-22.68-8.89-8.9-17.91-15.85-9.12-4.9-18.35-7.77-9.32-0.99-18.72-0.37-9.46 1.9-18.98 4.63-9.57 3.12-19.16 6.12-9.62 2.42-19.24 3.81-9.62 0-19.22-1.66-9.57-3.51-19.1-8.94-9.49-7.29-18.92-16.28-9.37-10.44-18.67-21.97-1.3-10.07-2.57-20.15-1.2-10.08-2.31-20.16-0.99-10.08-1.81-20.16-0.65-10.08-1.1-20.16-0.24-10.07-0.27-20.15 0.2-10.08 0.6-20.16 0.61-10.08 1.39-20.16 0.95-10.08 2.04-20.15 1.19-10.08 2.45-20.16 1.29-10.08 2.58-20.16 1.25-10.08 2.43-20.16 1.07-10.07 2.01-20.15 0.77-10.08 1.36-20.16 0.38-10.08 0.55-20.16-0.04-10.07-0.3-20.15 3.46-15.67 15.85-23.15 8.35-2.83 16.6-6.72 8.15-4.98 16.2-11.04 7.94-7.05 15.79-14.94 7.74-8.54 15.4-17.5 7.57-9.14 15.06-18.19 7.41-8.73 14.77-16.93 7.3-7.47 14.56-14.08 14.44-9.94 28.87-17.17 14.54-3.9 29.24-6.87 15.09-3.57 30.5-8.63 7.93-3.73 15.99-8.28 12.41-8.42 16.6-11.48" opacity=".09" stroke-dasharray="6 2"/>
<path transform="rotate(8.08 400 400)" d="m377.51 107.46q16.16 5.55 32.81 9.5 8.62 1.41 17.42 2.77 8.98 1.49 18.13 3.32 9.33 2.33 18.83 5.31 9.68 3.75 19.51 8.34 10 5.47 20.14 11.79 10.28 7.1 20.69 14.88 10.52 8.28 21.15 16.9 10.71 8.73 21.49 17.36 10.84 8.3 21.71 16.08 10.89 7.06 21.78 13.27 10.86 5.26 21.69 9.52 10.77 3.26 21.46 5.6 10.59 1.53 21.07 2.42 16.67 5.32 24.61 19.67 0.67 9.48 0.38 18.96-1.24 9.49-3.39 18.97-3.01 9.48-6.8 18.97-4.47 9.48-9.5 18.96-5.47 9.49-11.23 18.97-5.91 9.48-11.8 18.97-5.73 9.48-11.14 18.96-4.96 9.49-9.33 18.97-3.68 9.48-6.57 18.97-2.01 9.48-3.11 18.96-0.15 9.48 0.66 18.97 1.74 9.48 4.36 18.96 3.44 9.49 7.62 18.97 4.79 9.48 10.08 18.97 5.64 9.48 11.5 18.96-5.3 12.01-10.67 23.9-5.47 11.39-11.05 21.89-5.71 9.28-11.56 17.09-12.27 9.63-25.07 14.07-13.78-2.63-28.17-7.74-15.43-5.18-31.47-7.91-8.37 0.96-16.93 3.66-8.74 4.56-17.66 11.04-9.08 8.3-18.31 18.24-9.37 11.33-18.87 23.68-9.62 12.97-19.33 26.1-9.8 12.83-19.67 24.91-9.93 10.91-19.9 20.29-7.1-2.28-14.35-6.54-7.4-6.26-14.95-14.4-7.7-9.83-15.56-21.05-7.99-12.23-16.14-25.06-8.28-12.97-16.7-25.63-8.54-11.93-17.2-22.72-8.77-9.35-17.64-17.01-8.97-5.83-18.02-9.79-9.11-2.16-18.29-2.67-9.23 0.87-18.49 2.81-9.29 2.62-18.59 5.52-9.31 2.73-18.61 4.9-9.28 1.23-18.53 1.19-9.23-1.55-18.4-4.76-9.12-4.96-18.19-11.62-9-8.24-17.93-17.85-1.32-9.77-2.6-19.54-1.2-9.77-2.29-19.53-0.94-9.77-1.72-19.54-0.6-9.77-0.99-19.54-0.18-9.77-0.15-19.53 0.25-9.77 0.71-19.54 0.65-9.77 1.48-19.54 0.99-9.77 2.12-19.53 1.22-9.77 2.52-19.54 1.34-9.77 2.67-19.54 1.31-9.77 2.55-19.54 1.14-9.76 2.15-19.53 0.86-9.77 1.54-19.54 0.49-9.77 0.77-19.54 0.06-9.77-0.09-19.54 3.49-15.63 15.51-24.38 8.08-3.89 16.07-8.82 7.89-5.95 15.69-12.82 7.69-7.66 15.29-15.94 7.5-8.69 14.9-17.56 7.32-8.83 14.55-17.4 7.16-8.09 14.24-15.53 7.01-6.67 13.98-12.46 13.78-8.47 27.49-14.49 13.7-3.19 27.48-5.74 14.03-3.42 28.28-8.36 7.29-3.65 14.7-8.07 11.35-8.17 15.18-11.13" opacity=".13" stroke-dasharray="7 7"/>
<path transform="rotate(12.12 400 400)" d="m378.24 120.6q16.25 5.24 32.96 8.93 8.64 1.27 17.43 2.46 8.94 1.28 18.04 2.82 9.25 1.96 18.64 4.5 9.53 3.22 19.19 7.22 9.79 4.81 19.69 10.45 10 6.42 20.09 13.55 10.17 7.71 20.41 15.86 10.29 8.41 20.61 16.88 10.35 8.34 20.7 16.35 10.34 7.48 20.65 14.3 10.27 6 20.47 11.11 10.13 4.16 20.16 7.39 9.92 2.34 19.71 3.89 15.3 5.73 21.93 19.74 0.12 9.19-0.62 18.39-1.59 9.19-3.98 18.39-3.13 9.19-6.95 18.39-4.39 9.19-9.26 18.39-5.24 9.19-10.7 18.38-5.58 9.2-11.13 18.39-5.38 9.2-10.48 18.39-4.68 9.2-8.85 18.39-3.54 9.2-6.37 18.39-2.06 9.2-3.3 18.39-0.38 9.19 0.1 18.39 1.33 9.19 3.48 18.39 2.92 9.19 6.53 18.39 4.23 9.19 8.97 18.38 5.13 9.2 10.54 18.39-5.09 11.19-10.24 21.81-5.21 9.75-10.49 18.34-10.93 12.11-22.22 19.51-12.01 0.11-24.5-3.02-13.36-5.38-27.28-9.93-14.83 0.22-30.21 4.86-8 5.24-16.17 12.19-8.33 8.55-16.82 18.51-8.63 11.11-17.4 23.05-8.9 12.4-17.91 24.85-9.12 12.12-18.33 23.51-9.29 10.29-18.65 19.2-7.13-2.18-14.4-6.16-7.41-5.78-14.97-13.3-7.7-9.07-15.53-19.47-7.97-11.4-16.06-23.46-8.22-12.33-16.55-24.53-8.44-11.69-16.97-22.51-8.63-9.64-17.33-17.86-8.78-6.62-17.62-11.57-8.88-3.26-17.81-4.92-8.96-0.22-17.94 0.76-8.99 1.88-17.98 4.34-8.98 2.67-17.94 5.18-8.93 1.99-17.83 3.15-8.85 0.03-17.66-1.28-8.75-2.81-17.44-7.18-8.62-5.93-17.17-13.34-1.33-9.42-2.6-18.85-1.17-9.43-2.21-18.85-0.89-9.43-1.61-18.86-0.53-9.43-0.86-18.85-0.12-9.43-0.02-18.86 0.3-9.42 0.81-18.85 0.7-9.43 1.57-18.86 1.03-9.42 2.19-18.85 1.25-9.43 2.58-18.86 1.37-9.42 2.74-18.85 1.35-9.43 2.64-18.86 1.2-9.42 2.29-18.85 0.94-9.43 1.71-18.86 0.59-9.42 0.98-18.85 0.18-9.43 0.15-18.86 3.53-15.65 15.2-25.85 7.82-4.96 15.56-10.86 7.64-6.75 15.19-14.24 7.45-8.05 14.81-16.48 7.26-8.62 14.44-17.2 7.08-8.34 14.07-16.27 6.91-7.34 13.74-13.97 13.43-10.38 26.68-18.23 13.04-4.28 26.02-7.17 12.98-2.25 26.03-5.18 13.28-5.45 26.76-12.97 10.4-7.9 13.9-10.77" opacity=".16" stroke-dasharray="7 8"/>
<path transform="rotate(16.16 400 400)" d="m379.96 133.74q16.19 5.18 32.94 8.38 17.29 2.18 35.11 4.55 18.3 3.75 37.02 9.9 19.09 9.13 38.45 21.29 19.55 14.64 39.18 30.77 19.6 16.26 39.06 31.24 19.21 12.48 38.05 21.67 18.36 5.68 36.14 8.32 1.59 17.79 0.1 35.57-4.45 17.78-11.48 35.57-8.98 17.78-19.15 35.56-10.45 17.78-20.3 35.56-8.37 17.79-14.54 35.57-3.44 17.78-3.84 35.56 2.67 17.78 8.18 35.57 7.86 17.78 17.4 35.56-9.88 18.72-19.9 33.07-10.27 8.84-20.9 12.02-11.07-1.55-22.67-6.02-12.17-4.99-24.97-7.96-13.45 1.27-27.55 8.25-14.74 13.13-30.11 31.72-15.94 22.32-32.41 45.91-16.93 22.12-34.25 40.26-14.45-5.79-29.42-18.04-15.48-17.95-31.41-39.81-16.33-23.31-33-45.37-16.95-18.41-34.1-31.48-17.28-7.03-34.61-8.46-17.31 2.73-34.54 7.44-17.09 4.21-33.99 5.55-16.67-3.29-33.06-12.11-2.55-18.1-4.65-36.21-1.48-18.11-2.19-36.21 0.11-18.11 1.03-36.22 1.65-18.1 3.88-36.21 2.64-18.1 5.43-36.21 2.72-18.11 5.12-36.21 1.88-18.11 3.07-36.22 0.4-18.11-0.03-36.21 15.35-9.2 30.38-21.82 14.7-15.2 29.05-31.74 13.99-16.4 27.62-31.27 13.29-12.28 26.26-21.43 12.71-6.05 25.21-9.6 12.34-2.1 24.59-4 12.25-2.96 24.58-7.98 18.85-12.87 25.22-18.07" opacity=".2" stroke-dasharray="9 3"/>
<path transform="rotate(20.2 400 400)" d="m382.61 146.87q16.1 4.88 32.67 7.86 17.02 1.94 34.46 3.9 17.81 3.08 35.92 8.22 18.35 7.84 36.86 18.56 18.58 13.3 37.14 28.41 18.45 15.83 36.68 31.11 17.92 13.53 35.44 24.34 17.03 7.6 33.48 11.99 0.51 17.13-1.74 34.26-4.82 17.13-11.85 34.25-8.66 17.13-18.28 34.26-9.81 17.13-19.03 34.26-7.9 17.13-13.85 34.25-3.54 17.13-4.38 34.26 1.93 17.13 6.47 34.26 6.79 17.12 15.29 34.25-9.56 14.99-19.17 25.26-9.76 5.13-19.77 5.55-10.33-3.03-21.07-7.65-11.2-4.05-22.91-5.41-12.26 3.03-25.1 11.43-13.4 13.86-27.38 32.35-14.53 21.49-29.57 43.79-15.52 20.77-31.46 37.87-14.47-5.43-29.4-16.68-15.35-16.48-31.08-36.75-16.04-21.99-32.34-43.4-16.49-18.66-33.1-32.91-16.68-8.94-33.35-12.55-16.6 0.8-33.09 4.43-16.32 4.4-32.43 7.43-15.87-0.2-31.47-4.92-2.46-17.29-4.42-34.58-1.31-17.29-1.86-34.58 0.24-17.29 1.26-34.58 1.72-17.29 4-34.59 2.66-17.29 5.5-34.58 2.77-17.29 5.28-34.58 2.02-17.29 3.42-34.59 0.65-17.29 0.5-34.58 14.8-11.2 29.32-25.13 14.22-15.63 28.11-31.71 13.55-15.23 26.75-28.49 12.87-10.53 25.41-18.07 12.26-4.78 24.26-7.49 11.8-1.64 23.45-3.38 11.56-2.91 23.1-7.86 17.47-12.48 23.33-17.49" opacity=".24" stroke-dasharray="10 3"/>
<path transform="rotate(24.24 400 400)" d="m386.06 160q15.87 4.59 32.13 7.37 16.6 1.73 33.52 3.34 17.17 2.46 34.53 6.67 17.5 6.6 35.05 15.89 17.53 11.84 34.95 25.73 17.24 15.07 34.22 30.24 16.63 14.16 32.84 26.31 15.72 9.41 30.89 15.77-0.45 16.42-3.33 32.84-5.1 16.41-12.05 32.83-8.32 16.42-17.38 32.84-9.17 16.41-17.78 32.83-7.44 16.42-13.16 32.83-3.6 16.42-4.82 32.83 1.25 16.42 4.89 32.84 5.75 16.41 13.21 32.83-9.29 10.99-18.55 17.41-9.32 2-18.79 0.4-9.69-3.79-19.68-8-10.34-2.78-21.09-2.45-11.2 4.69-22.87 14.3-12.18 14.38-24.86 32.61-13.18 20.58-26.84 41.59-14.13 19.44-28.69 35.51-14.42-5.07-29.22-15.37-15.15-15.07-30.58-33.76-15.66-20.6-31.5-41.17-15.96-18.63-31.97-33.74-16.01-10.57-31.96-16.27-15.86-1.28-31.56 0.78-15.52 3.83-30.82 7.6-15.05 1.95-29.85 0.63-2.32-16.42-4.11-32.84-1.13-16.42-1.52-32.83 0.38-16.42 1.5-32.84 1.78-16.42 4.09-32.84 2.68-16.41 5.53-32.83 2.82-16.42 5.4-32.84 2.17-16.42 3.75-32.83 0.9-16.42 1.04-32.84 14.25-12.78 28.26-27.45 13.73-15.5 27.17-30.65 13.12-13.74 25.91-25.23 12.47-8.78 24.62-14.79 11.85-3.65 23.42-5.64 11.34-1.29 22.47-2.92 10.98-2.9 21.86-7.78 16.29-12.08 21.73-16.91" opacity=".28" stroke-dasharray="10 2"/>
<path transform="rotate(28.28 400 400)" d="m390.16 173.13q15.5 4.3 31.29 6.91 16.04 1.55 32.28 2.85 16.41 1.92 32.91 5.28 16.53 5.43 33.03 13.3 16.41 10.34 32.65 22.84 16.01 14.01 31.72 28.68 15.35 14.34 30.28 27.4 14.46 10.95 28.4 19.26-1.28 15.64-4.68 31.29-5.28 15.64-12.1 31.29-7.93 15.64-16.44 31.29-8.55 15.64-16.57 31.29-6.98 15.64-12.46 31.29-3.63 15.64-5.16 31.29 0.65 15.64 3.45 31.28 4.77 15.65 11.19 31.29-9.04 7.1-18 10.18-8.94-0.41-17.95-3.25-9.14-3.89-18.48-7.23-9.59-1.29-19.49 0.75-10.26 6.2-20.9 16.81-11.05 14.67-22.54 32.49-11.92 19.59-24.28 39.3-12.79 18.15-25.99 33.22-14.29-4.74-28.87-14.14-14.84-13.72-29.88-30.84-15.19-19.16-30.48-38.73-15.34-18.33-30.68-33.97-15.29-11.88-30.48-19.48-15.05-3.39-29.94-3.2-14.69 2.63-29.16 6.27-14.23 3.11-28.21 4.23-2.14-15.5-3.73-31-0.94-15.5-1.16-31 0.52-15.49 1.73-30.99 1.83-15.5 4.16-31 2.68-15.5 5.53-31t5.49-31q2.28-15.5 4.05-31 1.13-15.5 1.56-31 13.7-13.76 27.19-28.55 13.24-14.8 26.22-28.63 12.69-12.02 25.08-21.67 12.08-7.06 23.86-11.68 11.48-2.65 22.67-4.06 10.93-1.04 21.63-2.61 10.5-2.91 20.84-7.73 15.33-11.68 20.42-16.32" opacity=".32" stroke-dasharray="3 6"/>
<path transform="rotate(32.32 400 400)" d="m394.71 186.27q14.98 4.02 30.15 6.46 15.34 1.39 30.79 2.43 15.52 1.45 31.05 4.05 15.49 4.36 30.88 10.87 15.24 8.82 30.27 19.79 14.77 12.71 29.23 26.51 14.09 14.07 27.78 27.54 13.24 12.08 26 22.08-1.99 14.82-5.78 29.63-5.37 14.82-12 29.63-7.52 14.82-15.48 29.63-7.94 14.82-15.39 29.63-6.53 14.82-11.75 29.63-3.62 14.82-5.42 29.63 0.12 14.82 2.16 29.64 2.14 24.04-8.23 33.71-8.61-2.01-17.22-5.35-8.67-3.4-17.45-5.52-8.95 0.33-18.12 4-9.43 7.51-19.16 18.88-10.05 14.77-20.46 32.03-10.77 18.54-21.92 36.96-11.53 16.87-23.44 30.97-14.03-4.42-28.29-12.96-14.42-12.43-28.96-28.03-14.63-17.68-29.28-36.11-14.65-17.79-29.25-33.62-14.5-12.86-28.88-22.08-14.23-5.39-28.27-7.24-13.84 0.99-27.45 3.75-13.39 3.3-26.54 5.84-1.94-14.55-3.31-29.1-0.73-14.55-0.78-29.11 0.65-14.55 1.94-29.1 1.87-14.55 4.21-29.1 2.66-14.56 5.5-29.11 2.85-14.55 5.54-29.1 2.38-14.55 4.3-29.1 1.35-14.56 2.06-29.11 13.14-14.06 26.1-28.35 12.75-13.61 25.26-25.79 12.26-10.15 24.24-17.97 11.71-5.46 23.12-8.84 11.13-1.81 21.98-2.76 10.58-0.88 20.91-2.45 10.1-2.93 20-7.69 14.55-11.27 19.36-15.7" opacity=".35" stroke-dasharray="11 6"/>
<path transform="rotate(36.36 400 400)" d="m399.51 199.41q14.31 3.76 28.74 6.03 14.51 1.26 29.05 2.09 14.54 1.06 29.02 2.99 14.38 3.37 28.62 8.61 14.05 7.32 27.86 16.72 13.54 11.22 26.76 23.82 12.87 13.36 25.35 26.74 12.08 12.66 23.72 23.93-2.55 13.93-6.63 27.87-5.37 13.94-11.77 27.88-7.09 13.93-14.5 27.87-7.34 13.94-14.24 27.88-6.08 13.94-11.05 27.87-3.57 13.94-5.58 27.88-0.34 13.94 1.02 27.88-8.49 22.96-26.16 21.39-16.6-1.79-33.49 4.02-8.71 8.61-17.64 20.5-9.17 14.65-18.62 31.24-9.74 17.44-19.79 34.56-10.38 15.64-21.08 28.78-13.66-4.11-27.45-11.84-13.9-11.2-27.84-25.32-13.96-16.19-27.91-33.37-13.88-17.01-27.67-32.74-13.68-13.47-27.21-23.98-13.35-7.18-26.52-11.05-12.97-0.93-25.73 0.4-12.53 2.66-24.85 5.6-1.7-13.59-2.83-27.19-0.52-13.59-0.4-27.19 0.77-13.6 2.14-27.19 1.9-13.6 4.23-27.19 2.63-13.6 5.44-27.19 2.83-13.6 5.54-27.19 2.45-13.6 4.51-27.19 1.56-13.59 2.53-27.19 12.57-13.67 24.98-26.87 12.24-12.03 24.28-22.34 11.81-8.23 23.38-14.29 11.32-4.01 22.38-6.32 10.79-1.14 21.31-1.77 10.26-0.79 20.27-2.4 9.76-2.96 19.3-7.66 13.94-10.84 18.53-15.08" opacity=".39" stroke-dasharray="9 10"/>
<path transform="rotate(40.4 400 400)" d="m404.32 212.54q13.52 3.5 27.09 5.63 13.57 1.15 27.11 1.81 13.48 0.73 26.86 2.1 13.24 2.5 26.3 6.57 12.85 5.89 25.45 13.69 12.33 9.63 24.35 20.79 11.69 12.25 23.03 25.03 10.98 12.69 21.56 24.65-3 13.02-7.25 26.05-5.31 13.02-11.42 26.05-6.64 13.02-13.51 26.05-6.76 13.03-13.11 26.05-5.66 13.03-10.35 26.06-3.5 13.02-5.67 26.05-0.72 13.03 0.03 26.05-9.53 19.42-26.78 17.36-15.8 1.06-31.7 9.74-8.09 9.46-16.33 21.63-8.41 14.36-17.02 30.14-8.83 16.31-17.91 32.15-9.33 14.43-18.93 26.64-13.15-3.81-26.37-10.78-13.25-10.04-26.5-22.73-13.21-14.69-26.36-30.54-13.06-16.06-26-31.38-12.8-13.73-25.44-25.16-12.47-8.68-24.75-14.42-12.08-2.91-23.96-3.37-18.14-3.73-25.49-21.49-0.3-12.65-0.01-25.29 0.88-12.65 2.32-25.3 1.91-12.64 4.22-25.29 2.59-12.65 5.35-25.29 2.8-12.65 5.51-25.29 2.49-12.65 4.66-25.3 1.73-12.64 2.96-25.29 11.97-12.64 23.83-24.28 11.7-10.16 23.24-18.5 11.35-6.37 22.5-10.81 10.92-2.74 21.61-4.18 10.45-0.64 20.65-1.06 9.96-0.79 19.67-2.47 9.46-3 18.71-7.63 13.44-10.41 17.85-14.44" opacity=".43" stroke-dasharray="5 10"/>
<path transform="rotate(44.44 400 400)" d="m408.94 225.67q12.62 3.25 25.22 5.25 12.55 1.06 25.03 1.6 12.37 0.47 24.61 1.36 12.07 1.76 23.95 4.77 11.67 4.57 23.09 10.83 11.15 7.98 22.02 17.53 10.57 10.84 20.82 22.58 9.93 12.15 19.53 24.16-3.33 12.1-7.66 24.19-5.16 12.1-10.96 24.2-6.18 12.09-12.5 24.19-6.2 12.09-12.03 24.19-5.23 12.1-9.64 24.19-3.41 12.1-5.68 24.2-1.05 12.09-0.82 24.19-10.42 17.22-27.28 16.02-15.08 4.03-30.11 15.26-7.57 10.04-15.21 22.26-7.76 13.89-15.64 28.79-8.04 15.13-16.25 29.71-8.41 13.26-17.03 24.55-12.52-3.51-25.05-9.77-12.51-8.94-24.97-20.26-12.39-13.22-24.68-27.67-12.17-14.95-24.21-29.62-11.89-13.63-23.62-25.6-11.56-9.8-22.93-17.14-11.19-4.8-22.19-7.2-16.72-5.58-23.27-22.55-0.1-11.72 0.36-23.45 0.99-11.72 2.47-23.44 1.91-11.72 4.18-23.44 2.54-11.72 5.23-23.45 2.75-11.72 5.44-23.44 2.51-11.72 4.76-23.44 1.88-11.72 3.32-23.44 11.37-11.08 22.65-20.84 11.16-8.16 22.17-14.55 10.87-4.63 21.56-7.64 10.5-1.69 20.81-2.46 10.09-0.29 19.96-0.62 9.65-0.84 19.07-2.62 9.2-3.05 18.17-7.6 13.03-9.95 17.31-13.78" opacity=".47" stroke-dasharray="7 7"/>
<path transform="rotate(48.48 400 400)" d="m413.14 238.8q11.63 3.01 23.19 4.88 11.48 0.99 22.85 1.44 11.24 0.28 22.33 0.79 10.91 1.14 21.63 3.25 10.5 3.36 20.78 8.18 10.03 6.35 19.8 14.22 9.51 9.22 18.74 19.56 8.94 11.1 17.61 22.56-3.52 11.17-7.85 22.33-4.96 11.16-10.4 22.33-5.71 11.16-11.5 22.33-5.65 11.16-10.98 22.33-4.81 11.16-8.93 22.32-3.29 11.17-5.62 22.33-1.3 11.17-1.52 22.33-11.16 16.24-27.58 16.94-7.27 1.85-14.45 5.76-7.13 6.14-14.24 14.47-7.11 10.36-14.25 22.41-7.19 13.27-14.45 27.19-7.36 13.95-14.83 27.28-7.61 12.13-15.36 22.53-11.78-3.23-23.52-8.82-11.67-7.91-23.26-17.93-11.5-11.77-22.88-24.81-11.25-13.71-22.35-27.5-10.96-13.23-21.76-25.34-10.63-10.53-21.1-19.11-10.29-6.44-20.41-10.7-15.3-7.85-21.04-24.32 0.1-10.83 0.7-21.67 1.08-10.83 2.6-21.66 1.9-10.83 4.12-21.66 2.46-10.84 5.08-21.67 2.67-10.83 5.31-21.66 2.51-10.83 4.81-21.66 2-10.83 3.62-21.67 10.75-9.15 21.42-16.86 10.58-6.15 21.05-10.72 10.35-3.1 20.56-4.93 10.06-0.87 19.95-1.15 9.71-0.1 19.23-0.43 9.33-0.95 18.45-2.84 8.92-3.09 17.63-7.55 12.67-9.48 16.82-13.1" opacity=".51" stroke-dasharray="10 1"/>
<path transform="rotate(52.52 400 400)" d="m416.74 251.94q10.57 2.76 21.05 4.51 10.37 0.94 20.62 1.33 10.1 0.15 20.05 0.37 9.78 0.64 19.36 1.99 9.39 2.32 18.58 5.83 8.96 4.82 17.69 11.01 8.51 7.5 16.78 16.19 8.03 9.67 15.83 20.04-3.62 10.24-7.85 20.49-4.71 10.25-9.76 20.49-5.24 10.25-10.5 20.49-5.13 10.25-9.97 20.5-4.4 10.24-8.23 20.49-3.13 10.24-5.49 20.49-1.49 10.25-2.08 20.49-11.69 16.21-27.64 19.48-6.97 3.31-13.84 8.48-6.79 7.06-13.53 15.91-6.7 10.42-13.4 22.1-6.7 12.51-13.43 25.39-6.77 12.74-13.61 24.86-6.92 11.02-13.93 20.56-10.93-2.96-21.78-7.92-10.77-6.95-21.43-15.74-10.55-10.37-20.98-21.97-10.3-12.41-20.45-25.13-10.01-12.55-19.87-24.45-9.71-10.82-19.26-20.22-9.4-7.72-18.65-13.61-13.9-10.18-18.84-26.3 0.29-9.99 1.02-19.97 1.15-9.98 2.69-19.97 1.88-9.98 4.04-19.96 2.38-9.99 4.89-19.97 2.59-9.98 5.16-19.97 2.48-9.98 4.79-19.96 2.07-9.98 3.85-19.97 10.09-7.06 20.14-12.73 9.97-4.28 19.87-7.25 9.8-1.81 19.5-2.72 9.57-0.28 19-0.27 9.3-0.04 18.43-0.46 8.98-1.08 17.78-3.1 8.62-3.12 17.07-7.47 12.29-8.99 16.33-12.38" opacity=".54" stroke-dasharray="5 9"/>
<path transform="rotate(56.56 400 400)" d="m419.56 265.07q9.49 2.53 18.87 4.16 9.26 0.9 18.39 1.26 8.99 0.07 17.82 0.1 17.1 1.35 33.66 4.83 7.95 3.43 15.72 8.03 7.57 5.78 14.94 12.72 7.18 7.97 14.17 16.84-3.61 9.35-7.67 18.7-4.41 9.36-9.06 18.71-4.76 9.35-9.51 18.71-4.62 9.35-8.99 18.7-4 9.36-7.53 18.71-2.97 9.35-5.29 18.7-1.63 9.36-2.52 18.71-3.4 13.69-13.74 18.36-13.62 5.36-26.9 15.31-6.46 7.69-12.86 16.77-6.34 10.24-12.63 21.35-6.28 11.64-12.54 23.43-6.28 11.55-12.57 22.48-14.52 12.95-32.61 11.57-9.8-6.04-19.5-13.68-9.57-9.04-19.03-19.23-9.32-11.04-18.51-22.56-9.06-11.63-17.98-22.99-8.79-10.72-17.44-20.49-8.51-8.56-16.9-15.7-12.5-12.24-16.68-28.04 0.46-9.17 1.3-18.35 1.21-9.17 2.76-18.35 1.84-9.18 3.92-18.35 2.27-9.18 4.68-18.36 2.47-9.17 4.95-18.35 2.42-9.18 4.71-18.35 2.12-9.18 4-18.36 9.42-4.99 18.81-8.78 9.35-2.65 18.63-4.3 9.22-0.83 18.36-1.08 9.05 0.08 17.99 0.21 17.47-1 34.55-4.04 8.29-3.13 16.43-7.35 11.89-8.48 15.8-11.65" opacity=".58" stroke-dasharray="8 5"/>
<path transform="rotate(60.6 400 400)" d="m421.48 278.21q16.68 3.83 32.89 5.04 15.68-0.05 30.79 0.22 14.5 2.2 28.38 7.62 13.24 9.35 25.86 22.65-7.34 16.98-15.64 33.97-8.54 16.98-16.58 33.97-6.84 16.98-11.88 33.96-2.81 16.99-3.13 33.97-13.56 2.41-26.58 9.61-12.57 12.41-24.76 29.44-11.93 20.23-23.67 41.57-11.66 20.14-23.32 36.92-17.92-6.27-35.42-18.04-17.05-16.59-33.63-36.48-16.11-21.06-31.75-41.04-15.18-16.85-29.95-29.18 0.18-16.81 1.72-33.62 2.79-16.81 6.56-33.63 4.43-16.81 9.14-33.62 4.58-16.82 8.63-33.63 17.44-5.32 34.77-7.32 17.14 0 34.02 0.34 16.54-0.98 32.68-4.65 15.69-7.18 30.87-18.07" opacity=".62" stroke-dasharray="7 2"/>
<path transform="rotate(64.64 400 400)" d="m422.41 291.34q14.55 3.49 28.66 4.69 13.65-0.1 26.82-0.31 12.66 0.97 24.82 4.21 11.67 6.31 22.85 16.04-6.87 15.33-14.38 30.67-7.59 15.34-14.72 30.67-6.15 15.34-10.89 30.67-2.98 15.34-3.99 30.68-12.75 5.12-25.04 14.45-11.86 13.41-23.38 30.14-11.22 18.76-22.21 37.94-10.84 17.85-21.59 32.83-15.88-5.51-31.37-15.52-15.09-14.1-29.76-31.28-14.27-18.8-28.15-37.53-13.51-17.05-26.68-31.07 0.59-15.33 2.33-30.67 2.76-15.33 6.35-30.67 4.17-15.33 8.6-30.67 4.38-15.33 8.39-30.67 16.02-2.55 31.98-2.96 15.84 0.54 31.51 0.72 15.44-1.39 30.6-5.3 22.03-12.01 29.25-17.06" opacity=".66" stroke-dasharray="11 10"/>
<path transform="rotate(68.68 400 400)" d="m422.31 304.48q12.5 3.16 24.64 4.36 11.75-0.07 23.11-0.53 10.97 0.1 21.54 1.65 10.21 3.75 20.05 10.18-6.31 13.76-12.99 27.51-6.66 13.76-12.91 27.52-5.48 13.75-9.87 27.51-3.04 13.76-4.55 27.52-11.86 7.42-23.33 18.19-11.1 13.72-21.88 29.63-10.5 17.04-20.76 34-10.06 15.64-19.99 28.87-13.85-4.8-27.35-13.2-13.15-11.77-25.97-26.28-12.48-16.3-24.65-33.23-11.88-16.34-23.5-30.97 0.94-13.9 2.81-27.8 2.71-13.89 6.09-27.79 3.87-13.89 7.98-27.79 4.12-13.89 8.02-27.79 14.54-0.61 29.06-0.12 14.47 0.63 28.84 0.44 14.23-1.84 28.26-5.94 20.58-11.31 27.35-15.94" opacity=".7" stroke-dasharray="6 2"/>
<path transform="rotate(72.72 400 400)" d="m421.17 317.61q10.59 2.83 20.89 4.03 9.99 0.03 19.69-0.5 9.4-0.41 18.52-0.04 10.31 9.71 5.93 29.89-5.76 12.23-11.17 24.47-4.82 12.23-8.81 24.47-2.99 12.23-4.84 24.47-10.88 9.04-21.43 20.48-10.26 13.37-20.24 28.01-9.72 15.11-19.22 29.83-9.3 13.49-18.44 25.04-11.85-4.13-23.41-11.06-11.29-9.63-22.31-21.58-10.77-13.7-21.3-28.4-10.3-14.87-20.41-29.08 1.2-12.47 3.15-24.94 2.61-12.47 5.75-24.93 3.54-12.47 7.3-24.94 3.81-12.47 7.5-24.93 13.02 0.47 26.05 1.24 13.02 0.36 26-0.33 12.89-2.27 25.68-6.48 18.88-10.52 25.12-14.72" opacity=".73" stroke-dasharray="9 3"/>
<path transform="rotate(76.76 400 400)" d="m419.06 330.74q17.32 3.19 33.99 3.42 20.7 5.57 20.77 22.49-4.9 10.75-9.51 21.5-4.16 10.75-7.73 21.5-2.84 10.75-4.86 21.5-9.8 9.81-19.35 21.14-9.32 12.41-18.41 25.42-8.87 13.05-17.55 25.56-8.5 11.44-16.84 21.35-9.94-3.5-19.66-9.1-9.51-7.68-18.82-17.24-9.13-11.12-18.08-23.34-8.79-12.83-17.45-25.7 1.39-11.03 3.35-22.07 2.46-11.03 5.33-22.06 3.18-11.04 6.55-22.07 3.46-11.03 6.86-22.06 11.46 0.81 22.94 1.37 11.5-0.14 23-1.37 11.46-2.63 22.88-6.86 16.96-9.63 22.59-13.38" opacity=".77" stroke-dasharray="2 9"/>
<path transform="rotate(80.8 400 400)" d="m416.06 343.87q14.21 2.92 27.98 3.39 17.37 3.39 17.46 17.16-4.07 9.29-7.91 18.57-3.52 9.28-6.63 18.57-2.61 9.28-4.66 18.56-8.63 9.7-17.07 20.19-8.27 10.97-16.37 22.1-7.94 10.91-15.72 21.26-15.44 12.2-31.23 10.49-7.83-5.95-15.53-13.32-7.57-8.65-15.03-18.33-7.35-10.44-14.6-21.31 1.49-9.57 3.39-19.13 2.26-9.57 4.82-19.14 2.79-9.57 5.75-19.14 9.5-14.07 25.84-18.53 9.93-0.74 19.87-2.48 9.94-2.88 19.87-6.99 14.84-8.64 19.77-11.92" opacity=".81" stroke-dasharray="3 2"/>
<path transform="rotate(84.84 400 400)" d="m412.32 357.02q11.44 2.94 22.51 3.34 12.59 6.24 8.04 29.13-5.51 15.63-9.76 31.25-14.62 17.87-28.74 36.12-13.66 17.06-26.87 31.49-12.83-5.73-25.29-15.59-12.14-13.62-24.03-30.05 3.26-16.12 7.5-32.25 4.9-16.13 10.12-32.25 16.49-0.65 33.12-4.07 16.7-6.82 33.4-17.12" opacity=".85" stroke-dasharray="1 6"/>
<path transform="rotate(88.88 400 400)" d="m408.02 370.15q17.42 2.6 34.34 1.57-5.26 12.65-10.21 25.3-4.4 12.64-8.04 25.29-11.98 14.51-23.66 28.67-11.37 13.03-22.45 24.24-9.8-4.3-19.4-11.2-9.43-9.42-18.72-21 2.95-13.03 6.52-26.05 4-13.03 8.26-26.06 13.19-1.9 26.5-5.9 20.13-10.58 26.86-14.86" opacity=".89" stroke-dasharray="1 5"/>
<path transform="rotate(92.92 400 400)" d="m403.35 383.28q17.25 7.22 18.09 21.55-3.29 9.6-6.18 19.2-9.18 10.58-18.2 20.65-16.71 11.82-31.53 9.94-9.05-14.43-8.41-32.82 3.05-9.84 6.29-19.67 9.86-2.75 19.82-6.81 15.07-8.71 20.12-12.04" opacity=".92" stroke-dasharray="3 10"/>
<path transform="rotate(96.96 400 400)" d="m398.52 396.41q10.34 9.05 8.01 28.7-12.41 12.8-24.53 23.84-9.02-4.37-17.94-11.27 3.77-13.17 8.01-26.34 19.79-10.61 26.45-14.93" opacity=".96" stroke-dasharray="5 4"/>
</g>
</svg>
