<svg viewBox="0 0 800 800" xmlns="http://www.w3.org/2000/svg"><defs><linearGradient id="a" x1="50%" x2="50%" y2="100%"><stop stop-color="hsl(37, 99%, 67%)" offset="0"/><stop stop-color="hsl(316, 73%, 52%)" offset="1"/></linearGradient></defs><g fill="none" stroke="url(#a)" stroke-linecap="round" stroke-width="2"><path d="M379.17 81.2q15.85 6.21 32.17 10.74 8.47 1.72 17.13 3.47 8.87 2 17.95 4.48 9.29 3.13 18.81 7.08 9.74 4.87 19.7 10.69 10.19 6.77 20.59 14.4 10.62 8.35 21.44 17.22 11.01 9.17 22.21 18.36 11.36 8.97 22.87 17.45 11.65 7.75 23.41 14.59 11.86 5.81 23.78 10.5 11.97 3.59 23.96 6.16 11.99 1.69 23.96 2.71 11.9.62 23.73 1.12 11.71.69 23.3 1.87 3.97 10.05 6.96 20.11 1.92 10.06 2.71 20.11-.37 10.06-1.88 20.12-2.61 10.05-6.24 20.11-4.53 10.05-9.84 20.11-5.91 10.06-12.25 20.11-6.57 10.06-13.17 20.12-6.44 10.05-12.51 20.11-5.52 10.05-10.32 20.11-3.94 10.06-6.89 20.11-1.87 10.06-2.62 20.12.42 10.05 1.97 20.11 2.66 10.06 6.32 20.11 4.57 10.06 9.9 20.12 5.94 10.05 12.29 20.11 6.57 10.06 13.18 20.11-5.81 11.52-11.76 24.1-6.13 13.15-12.44 26.37-6.52 12.76-13.27 24.56-6.97 10.38-14.19 19-15.32 10.03-31.42 13.85-8.51-1.27-17.27-3.8-9.01-3.3-18.26-6.84-9.49-3.21-19.19-5.54-9.92-.94-20.02-.09-10.29 2.95-20.73 8.16-10.58 7.5-21.29 17.16-10.81 11.55-21.7 24.59-10.96 14.03-21.96 28.49-11.03 14.27-22.06 27.77-11.02 12.18-22 22.55-7.15-2.49-14.43-7.37-7.42-7.26-14.99-16.75-7.72-11.41-15.59-24.32-8.04-13.88-16.24-28.17-8.36-14.11-16.89-27.45-8.68-12.05-17.52-22.39-8.99-8.31-18.12-14.4-9.26-3.84-18.64-5.55-9.5.18-19.09 1.9-9.69 2.77-19.44 6.08-9.82 3.3-19.69 6.04-9.91 1.67-19.83 1.85-9.93-1.64-19.86-5.31-9.91-5.77-19.79-13.57-9.84-9.64-19.63-20.82-9.73-12.29-19.4-25.23l-2.48-20.73q-1.19-10.36-2.31-20.73-1-10.36-1.86-20.73-.69-10.37-1.19-20.73-.29-10.37-.37-20.73.14-10.37.49-20.73.56-10.37 1.3-20.73.9-10.37 1.94-20.73 1.14-10.37 2.35-20.73 1.25-10.36 2.48-20.73 1.2-10.36 2.31-20.73 1-10.36 1.85-20.73.68-10.36 1.18-20.73.28-10.36.35-20.73-.15-10.36-.51-20.73 3.48-15.84 16.25-22.42 8.62-1.89 17.14-4.75 8.41-3.97 16.72-9.09 8.2-6.26 16.3-13.55 8.01-8.17 15.93-17.01 7.84-9.24 15.6-18.63 7.71-9.24 15.37-18.09 7.61-8.21 15.21-15.62 7.58-6.47 15.16-11.94 15.27-7.63 30.68-12.92 15.82-3.3 31.96-6.78 8.3-2.39 16.75-5.44 8.61-3.82 17.39-8.49 13.53-8.68 18.1-11.83" opacity=".05" stroke-dasharray="11 1"/><path d="M399.42 93.528q15.557 6.983 31.727 12.376 8.43 2.159 17.049 4.311 8.805 2.367 17.772 5.135 9.125 3.372 18.408 7.496 9.413 4.975 18.962 10.863 9.663 6.818 19.455 14.517 9.918 8.47 19.953 17.559 10.164 9.52 20.456 19.229 10.414 9.678 20.958 19.074 10.67 8.884 21.463 17.044 10.914 7.277 21.929 13.559 11.1 5.225 22.253 9.401 11.201 3.217 22.392 5.582 11.167 1.72 22.252 3.025 17.649 6.75 25.907 22.26.568 9.835.1 19.586-1.516 9.687-4.06 19.292-3.51 9.546-7.92 19.03-5.186 9.417-11.042 18.798-6.374 9.344-13.096 18.654-6.913 9.306-13.825 18.602-6.753 9.317-13.168 18.659-5.914 9.366-11.171 18.79-4.488 9.467-8.1 19.006-2.633 9.608-4.258 19.278-.569 9.754-.09 19.582 1.477 9.889 3.911 19.855 3.302 10.027 7.342 20.097 4.669 10.124 9.796 20.28 5.427 10.168 10.983 20.355-6.381 11.72-12.894 23.87-6.64 12.123-13.398 23.776-6.863 10.723-13.814 20.147-14.166 12.794-28.579 19.846-14.924-1.746-30.29-7.182-8.008-3.854-16.245-7.594-8.509-3.147-17.313-5.242-9.108-.634-18.533.515-9.754 3.12-19.825 8.314-10.375 7.237-21.014 16.36-10.893 10.73-21.974 22.699-11.237 12.76-22.563 25.784-11.379 12.78-22.734 24.8-11.296 10.76-22.486 19.875-6.914-2.884-13.824-7.944-6.897-7.253-13.807-16.573-6.934-11.117-13.926-23.69-7.079-13.603-14.273-27.715-7.353-14.123-14.892-27.738-7.75-12.627-15.74-23.848-8.24-9.504-16.748-17.073-8.752-5.53-17.757-9.043-9.227-1.644-18.648-1.688-9.57 1.229-19.259 3.281-9.766 2.438-19.543 4.755-9.767 1.736-19.46 2.445-9.597-.678-19.056-3.01-9.299-4.175-18.423-10.263-8.953-7.94-17.726-17.573-8.61-11.074-17.075-23.23-.588-10.137-1.144-20.281-.487-10.14-.884-20.273-.278-10.125-.386-20.238.062-10.1.324-20.187.47-10.062 1.15-20.119.91-10.04 2.019-20.067 1.318-10.012 2.807-20.012 1.657-9.988 3.454-19.957 1.897-9.97 3.864-19.937l3.994-19.928q1.957-9.967 3.845-19.939 1.776-9.97 3.424-19.958 1.478-10 2.777-20.014 1.09-10.028 1.97-20.071.669-10.048 1.12-20.121 4.555-15.388 17.441-21.976 8.529-2.235 17.032-5.534 8.48-4.393 16.938-9.871 8.417-6.473 16.803-13.79 8.323-7.974 16.595-16.372 8.195-8.584 16.304-17.084 8.007-8.186 15.926-15.847 7.808-6.937 15.516-13.02 15.104-8.898 30.008-15.093 14.778-2.866 29.651-4.793 15.304-2.498 31.032-6.46 8.173-3.162 16.534-7.132 12.972-7.525 17.367-10.282" opacity=".09" stroke-dasharray="6 2"/><path d="M418.851 107.203q15.22 7.766 31.15 14.017 8.336 2.608 16.857 5.191 8.682 2.738 17.484 5.836 8.91 3.618 17.896 7.904 9.057 5.073 18.144 10.999 9.132 6.821 18.283 14.504 9.18 8.474 18.393 17.64 9.252 9.677 18.565 19.705 9.377 10.149 18.837 20.208 9.565 9.742 19.234 18.972 9.79 8.52 19.699 16.2 10.012 6.734 20.136 12.474 10.205 4.741 20.46 8.56 10.27 3.004 20.52 5.358 15.757 7.61 21.602 22.934-.67 9.48-2.289 18.825-2.562 9.222-6.023 18.305-4.312 8.963-9.399 17.826-5.758 8.758-12.07 17.437-6.75 8.627-13.785 17.203-7.184 8.555-14.35 17.123-7.005 8.58-13.694 17.206-6.244 8.699-11.903 17.47-4.976 8.869-9.171 17.859-3.323 9.103-5.744 18.334-1.481 9.365-2.013 18.875.39 9.63 1.651 19.384 2.072 9.88 4.878 19.853 3.41 10.06 7.314 20.198 4.252 10.18 8.72 20.389-6.935 11.145-13.922 22.163-7.017 10.508-14.017 20.12-6.958 8.385-13.848 15.295-13.502 7.81-26.799 10.406-13.273-4.54-26.802-11.622-14.549-7.298-30.046-12.255-8.422-.226-17.276 1.244-9.294 3.286-19.037 8.448-10.156 6.942-20.692 15.486-10.869 9.9-22.01 20.792-11.348 11.49-22.807 23.124Q399.47 708.518 388 719.091q-11.365 9.406-22.554 17.292-6.71-3.256-13.289-8.492-6.446-7.238-12.777-16.359-6.242-10.814-12.447-23.028-6.192-13.231-12.458-27.08-6.374-14.005-12.931-27.722-6.779-13.012-13.836-24.912-7.369-10.49-15.074-19.321-8.062-7.033-16.465-12.226-8.716-3.419-17.734-5.214-9.26-.436-18.7.183-9.567 1.289-19.182 2.853-9.602 1.394-19.114 2.235-9.361-.086-18.514-1.426-8.92-2.832-17.548-7.3-8.332-6.192-16.376-14.06-7.752-9.424-15.243-20.193.066-9.859.172-19.712.185-9.842.478-19.658.443-9.805 1.043-19.588.78-9.757 1.767-19.485 1.195-9.698 2.596-19.357 1.621-9.638 3.45-19.246 2.016-9.582 4.211-19.138 2.354-9.534 4.844-19.038 2.582-9.502 5.242-18.992 2.7-9.485 5.39-18.97 2.67-9.49 5.271-18.989 2.5-9.502 4.874-19.033 2.224-9.553 4.27-19.13 1.86-9.604 3.51-19.238 1.432-9.664 2.657-19.358 5.652-14.985 18.783-21.958 8.546-2.716 17.15-6.474 8.648-4.782 17.336-10.488 8.69-6.503 17.379-13.632 8.647-7.55 17.22-15.292 8.489-7.713 16.851-15.182 8.226-7.003 16.282-13.374 7.878-5.619 15.592-10.371 14.834-6.45 29.254-10.483 14.012-1.232 28.014-1.82 14.371-1.414 29.174-4.302 7.731-2.59 15.689-5.924 12.385-6.494 16.593-8.886" opacity=".13" stroke-dasharray="7 7"/><path d="M437.388 122.26q14.787 8.534 30.35 15.65 8.181 3.056 16.525 6.065 8.472 3.129 17.046 6.545 8.632 3.858 17.28 8.313 8.641 5.15 17.246 11.088 8.562 6.759 17.057 14.352 8.43 8.376 16.797 17.466 8.325 9.673 16.625 19.791 8.295 10.383 16.607 20.831 8.368 10.328 16.806 20.332 8.539 9.484 17.187 18.317 8.781 8.023 17.681 15.16 9.03 6.195 18.159 11.458 9.208 4.371 18.454 7.942 13.756 8.815 17.296 23.904-1.812 9.01-4.467 17.85-3.484 8.652-7.752 17.145-4.99 8.328-10.657 16.52-6.221 8.064-12.914 16.037-7.053 7.884-14.32 15.723-7.388 7.824-14.744 15.644-7.192 7.865-14.107 15.78-6.508 8.012-12.514 16.121-5.393 8.252-10.09 16.643-3.945 8.562-7.087 17.287-2.301 8.905-3.764 18.001-.629 9.265-.458 18.71.925 9.6 2.523 19.352 2.206 9.873 4.911 19.854 3.084 10.072 6.444 20.193-7.326 9.872-14.591 19.174-7.141 8.438-14.107 15.728-13.229 9.545-25.821 14.41-11.765-2.414-23.32-8.097-11.932-8.065-24.587-15.436-14.545-2.899-30.557-1.591-8.922 3.443-18.369 8.523-9.94 6.61-20.331 14.566-10.77 9.05-21.852 18.883-11.305 10.255-22.728 20.536-11.462 9.935-22.858 19.137-11.243 8.11-22.265 14.856-6.514-3.628-12.786-9.046-6.031-7.207-11.844-16.147-5.624-10.484-11.096-22.296-5.399-12.82-10.776-26.31-5.448-13.78-11.031-27.457-5.797-13.202-11.865-25.572-6.414-11.237-13.194-21.1-7.195-8.316-14.798-15.012-7.998-5.051-16.38-8.55-8.714-2.096-17.7-3.023-9.184-.05-18.49.468-9.34.725-18.628 1.298-9.149.07-18.094-.664-8.66-1.829-16.998-4.96-7.965-4.584-15.544-10.68-7.182-7.608-13.986-16.648.678-9.49 1.416-18.976.836-9.466 1.797-18.894 1.11-9.407 2.386-18.778 1.461-9.33 3.116-18.61 1.863-9.245 3.94-18.444 2.272-9.147 4.75-18.26 2.665-9.072 5.495-18.11 2.985-8.993 6.1-17.97 3.201-8.957 6.482-17.898l6.636-17.854q3.3-8.936 6.541-17.885 3.151-8.959 6.197-17.95 2.899-9.022 5.632-18.08 2.554-9.086 4.916-18.224 2.155-9.182 4.106-18.408 6.737-14.56 20.289-22.083 8.687-3.207 17.493-7.35 8.887-4.996 17.841-10.734 8.974-6.306 17.94-13.003 8.908-6.904 17.73-13.785 8.673-6.667 17.172-12.953 8.297-5.726 16.367-10.774 15.31-7.329 29.913-12.222 13.648-1.446 26.945-1.547 13.163.526 26.538.401 14.128-2.54 28.886-7.062 11.827-5.54 15.852-7.612" opacity=".16" stroke-dasharray="7 8"/><path d="M454.857 138.683q14.11 9.481 29.307 17.217 16 6.906 32.456 14.142 16.533 8.695 32.802 19.812 15.795 14.082 31.005 31.15 14.703 19.503 29.068 40.459 14.3 21.073 28.822 40.877 14.978 17.333 30.516 31.404 16.053 10.565 32.396 18.05-3.424 17.53-9.804 34.192-9.223 15.839-20.926 30.97-13.574 14.578-28.29 28.824-14.986 14.17-29.396 28.506-12.99 14.757-23.865 30.117-8.253 16.12-13.585 33.087-2.384 17.82-2.043 36.44 2.6 19.266 6.815 38.998-14.7 15.231-28.318 26.225-12.324 5.633-23.42 5.728-10.2-4.57-20.098-12.091-10.3-8.18-21.768-14.595-13.272-2.524-28.758.256-17.812 8.509-37.748 22.086-21.523 17.002-43.907 35.076-22.418 16.534-44.102 29.137-12.268-9.583-23.237-25.516-9.872-21.549-19.089-46.979-9.197-26.934-19.069-52.762-11.156-22.4-23.99-39.727-14.641-11.561-30.889-17.758-17.386-2.196-35.246-2.467-17.586-.713-34.191-4.13-15.096-7.8-28.384-20.832 2.589-18.095 5.612-36.074 3.619-17.806 7.975-35.389 5.146-17.363 11.07-34.502 6.622-16.925 13.804-33.7 7.574-16.65 15.294-33.267 7.653-16.638 14.996-33.354 6.846-16.872 13.029-33.935 5.425-17.283 10.05-34.788 17.303-4.564 35.252-12.502 18.35-10.508 36.736-22.4 18.002-11.859 35.232-22.348 16.182-8.096 31.186-13.275 13.892-2.273 26.886-2.204 12.437 1.418 24.732 3.002 12.59.567 25.83-.823 21.687-7.116 29.252-10.337" opacity=".2" stroke-dasharray="9 3"/><path d="M471.085 156.435q13.425 10.139 27.946 18.657 15.304 7.698 30.994 15.56 15.651 9.04 30.873 20.117 14.514 13.694 28.184 30.146 12.844 18.897 25.045 39.487 11.85 21.227 23.682 41.862 12.146 18.885 24.856 35.08 13.358 13.013 27.28 22.813-5.436 16.253-13.463 31.552-10.438 14.412-22.947 28.052-14.042 13.086-28.986 25.84-15.121 12.69-29.69 25.582-13.328 13.349-24.824 27.361-9.237 14.854-15.94 30.64-4.104 16.743-5.758 34.387.46 18.412 2.523 37.423-14.148 10.767-26.713 17.087-10.931 1.445-20.47-1.618-8.649-6.41-17.133-14.454-9.113-7.669-19.633-12.988-12.552-1.39-27.503 2.06-17.361 8.38-36.866 20.905-21.057 15.152-42.872 30.887-21.737 14.133-42.601 24.677-11.705-10.092-21.833-25.806-8.715-20.766-16.478-45.221-7.46-26.176-15.365-51.898-9.033-23.206-19.7-42.315-12.568-14.15-26.966-23.294-15.855-4.98-32.584-7.268-16.836-1.506-33.001-4.225-14.825-5.668-27.836-15.484 3.662-17.076 7.793-33.98 4.74-16.678 10.195-33.095 6.195-16.143 13.122-32.018 7.585-15.632 15.698-31.08 8.467-15.309 17.102-30.555 8.57-15.27 16.896-30.63 7.866-15.529 15.154-31.281 6.58-16.002 12.41-32.28 17.756-5.401 36.193-13.46 18.743-9.76 37.33-20.054 17.976-9.615 34.943-17.501 15.714-5.438 30.087-8.185 13.156-.252 25.354 1.348 11.64 2.535 23.174 4.925 11.854 1.26 24.394.6 20.704-5.68 27.934-8.358" opacity=".24" stroke-dasharray="10 3"/><path d="M485.823 175.437q12.587 10.7 26.272 19.911 14.426 8.393 29.193 16.808 14.646 9.292 28.747 20.258 13.248 13.203 25.436 28.88 11.124 17.993 21.305 37.81 9.533 20.82 18.788 41.623 9.35 19.74 19.143 37.473 10.47 15.035 21.692 27.062-7.152 14.788-16.52 28.578-11.387 12.869-24.466 24.988-14.328 11.556-29.33 22.809-15.1 11.198-29.691 22.636-13.526 11.917-25.479 24.532-10.024 13.494-17.873 27.957-5.602 15.485-9.024 31.952-1.495 17.324-1.434 35.359-12.983 6.207-24.062 8.26-9.32-2.004-17.298-7.35-7.28-7.435-14.66-15.375-8.287-6.78-18.225-10.893-12.138-.321-26.724 3.65-17.01 8.112-36.057 19.528-20.467 13.355-41.549 26.904-20.865 11.925-40.74 20.6-11.066-10.543-20.333-26.011-7.627-19.961-14.023-43.338-5.822-25.214-11.82-50.473-6.904-23.54-15.3-43.891-10.258-16.211-22.462-27.957-13.936-7.679-29.097-12.246-15.724-2.88-31.223-5.724-14.524-4.4-27.477-11.68 4.626-15.925 9.735-31.632 5.711-15.437 12.093-30.56 7.088-14.816 14.85-29.329 8.365-14.241 17.212-28.265 9.181-13.863 18.522-27.665 9.312-13.815 18.406-27.728 8.72-14.081 16.898-28.396 7.562-14.603 14.431-29.517 18.24-5.803 37.039-13.428 18.883-8.496 37.358-16.793 17.604-7.142 33.984-12.368 14.975-2.886 28.521-3.378 12.304 1.537 23.671 4.473 10.87 3.48 21.688 6.563 11.202 1.863 23.127 1.88 19.813-4.327 26.756-6.497" opacity=".28" stroke-dasharray="10 2"/><path d="M498.821 195.547q11.613 11.13 24.282 20.91 13.39 8.964 27.076 17.803 13.542 9.465 26.48 20.242 11.985 12.613 22.787 27.361 9.553 16.88 17.932 35.583 7.461 19.923 14.346 40.285 6.724 19.901 13.684 38.476 7.546 16.494 15.886 30.417-8.538 13.166-18.946 25.338-12.06 11.271-25.48 21.822-14.394 10.016-29.303 19.767-14.94 9.722-29.417 19.704-13.557 10.467-25.798 21.652-10.606 12.054-19.368 25.11Q506.144 574.1 501.2 589.2q-3.214 16.042-4.97 32.857-11.325 1.97-20.675.437-7.678-4.597-14.267-11.367-6.207-7.756-12.85-15.122-7.834-5.68-17.518-8.574-11.973.6-26.37 4.902-16.682 7.684-35.243 17.933-19.779 11.604-40.002 23.106-19.862 9.924-38.626 16.941-10.34-10.944-18.725-26.13-6.569-19.113-11.703-41.316-4.299-24.07-8.492-48.548-4.825-23.41-10.924-44.45Q233 472.16 223.223 458.27q-11.648-10.115-24.85-17.003-14.184-4.643-28.651-8.294-14.005-4.003-26.847-9.64 5.459-14.664 11.402-29.067 6.516-14.095 13.666-27.85 7.797-13.394 16.206-26.47 8.955-12.784 18.35-25.33 9.704-12.38 19.558-24.68t19.522-24.699q9.351-12.57 18.254-25.38 8.338-13.115 16.06-26.562 18.585-5.626 37.472-12.26 18.671-6.76 36.655-12.79 16.87-4.573 32.353-7.201 13.983-.494 26.546 1.018 11.365 3.106 21.888 7.165 10.118 4.263 20.284 7.95 10.626 2.412 22.015 3.066 19.034-3.023 25.715-4.697" opacity=".32" stroke-dasharray="3 6"/><path d="M509.8 216.554q10.51 11.406 22.025 21.579 12.22 9.376 24.72 18.515 12.34 9.523 24.075 20.023 10.759 11.966 20.284 25.696 8.164 15.602 15 32.908 5.686 18.638 10.528 38.03 4.385 19.424 8.752 38.127 4.73 17.287 10.167 32.56-9.605 11.46-20.726 21.949-12.462 9.653-25.983 18.624-14.278 8.503-28.923 16.763-14.633 8.279-28.847 16.811-13.442 9.033-25.772 18.758-10.982 10.588-20.422 22.142-7.822 12.588-14.021 26.202-11.045 21.46-24.978 24.088-6.202-6.302-11.692-13.728-5.509-7.509-11.795-13.994-7.74-4.507-17.452-6.308-11.984 1.305-26.285 5.711-16.39 7.109-34.415 16.13-19.014 9.909-38.285 19.514-18.763 8.092-36.367 13.64-9.493-11.237-16.978-26.078-5.54-18.214-9.487-39.17-2.91-22.763-5.438-46.17-2.869-22.867-6.743-44.05-5.378-18.62-12.601-34.1-9.144-12.164-20.02-21.233-12.225-6.563-25.202-11.507-13.08-4.37-25.55-9.255 6.14-13.333 12.76-26.361 7.163-12.686 14.905-25.017 8.329-11.949 17.198-23.555 9.36-11.296 19.116-22.34 10.032-10.883 20.211-21.66 10.188-10.772 20.24-21.63 9.79-11.023 19.192-22.293 8.926-11.582 17.305-23.498 18.621-4.857 37.214-10.004 18.05-4.685 35.135-8.29 15.787-2.022 30.092-2.225 12.815 1.646 24.264 4.89 10.374 4.421 20.05 9.42 9.412 4.912 18.981 9.108 10.102 2.924 21.013 4.195 18.321-1.745 24.755-2.917" opacity=".35" stroke-dasharray="11 6"/><path d="M518.527 238.173q9.294 11.512 19.57 21.895 10.937 9.617 22.154 18.905 11.081 9.474 21.598 19.613 9.582 11.239 17.943 23.9 6.975 14.225 12.523 29.983 4.252 17.063 7.429 35.047 2.443 18.389 4.561 36.563 2.223 17.357 4.915 33.333-10.312 9.707-21.862 18.514-12.589 8.042-26.007 15.474-13.969 7.014-28.2 13.847-14.176 6.875-27.997 14.01-13.16 7.621-25.421 15.893-11.14 9.11-21.023 19.144-8.538 11.024-15.707 23.056-20.45 13.457-33.748 1.717-12.307-11.283-29.353-16.618-12.12 1.77-26.36 6.051-16.07 6.361-33.515 14.119-18.183 8.27-36.426 16.099-17.632 6.44-34.039 10.68-8.564-11.41-15.086-25.81-4.554-17.26-7.409-36.895-1.643-21.314-2.692-43.42-1.093-21.927-2.873-42.77-3.03-18.958-7.696-35.443-6.494-13.697-14.805-24.621-9.894-8.439-20.958-14.932-11.667-5.287-23.332-10.223 6.688-11.952 13.84-23.574 7.639-11.253 15.799-22.134 8.682-10.495 17.843-20.627 9.593-9.826 19.526-19.389 10.18-9.393 20.5-18.671 10.342-9.274 20.582-18.612 10.036-9.5 19.751-19.222 9.314-10.02 18.158-20.397 18.227-3.556 36.046-6.829 16.99-2.431 32.798-3.596 14.39.374 27.3 2.353 11.493 3.482 21.77 8.179 9.364 5.479 18.21 11.208 8.73 5.447 17.746 10.085 9.615 3.402 20.084 5.273 17.652-.465 23.863-1.158" opacity=".39" stroke-dasharray="9 10"/><path d="M524.786 260.042q8.028 11.428 16.982 21.845 9.588 9.67 19.472 18.949 9.792 9.292 19.094 19.008 8.462 10.485 15.77 22.048 5.968 12.814 10.508 26.92 3.149 15.325 5.07 31.615.962 16.905 1.315 33.987.137 16.78.443 32.746-10.723 7.97-22.405 15.139-12.482 6.473-25.58 12.436-13.495 5.612-27.172 11.082-13.593 5.542-26.867 11.341-12.756 6.255-24.772 13.138-11.104 7.647-21.202 16.163-8.993 9.457-16.86 19.858-19.844 8.612-31.646-4.136-12.72-9.434-30.453-13.128-12.292 1.96-26.455 5.888-15.712 5.485-32.496 11.922-17.295 6.697-34.476 12.875-16.457 4.942-31.682 8.019-7.545-11.425-13.095-25.3-3.583-16.234-5.449-34.486-.539-19.748-.28-40.341.463-20.695.538-40.749-.85-18.751-3.067-35.648-3.87-14.692-9.502-27.022-7.314-10.046-16.063-18.096-11.396-14.597-5.483-32.886 7.97-9.828 16.383-19.266 8.869-9.063 18.164-17.763 9.647-8.388 19.605-16.524 10.171-7.955 20.465-15.792 10.331-7.819 20.587-15.688 10.095-8.02 19.946-16.247 9.51-8.504 18.646-17.34 17.307-1.869 33.883-3.046 15.495-.154 29.689.974 12.772 2.505 24.14 6.35 10.092 4.991 19.166 10.823 8.373 6.285 16.413 12.576 8.097 5.854 16.58 10.868 9.15 3.846 19.194 6.316 16.982.783 22.952.572" opacity=".43" stroke-dasharray="5 10"/><path d="M528.442 281.79q6.735 11.157 14.331 21.407 8.218 9.544 16.75 18.668 8.504 8.996 16.62 18.202 7.385 9.707 13.76 20.174 5.132 11.434 8.903 23.9 2.374 13.504 3.448 27.933-.043 15.14-.944 30.7-1.417 15.627-2.972 30.923-10.85 6.308-22.406 11.908-12.156 5.027-24.77 9.605-12.877 4.305-25.861 8.52-12.892 4.29-25.526 8.847-12.206 4.978-23.82 10.522-10.907 6.252-21 13.302-9.214 7.897-17.522 16.697-19.496 4.999-30.694-7.663-13.588-7.68-32.182-10.186-12.435 1.868-26.446 5.244-15.265 4.484-31.324 9.605-16.334 5.173-32.404 9.835-15.289 3.579-29.348 5.604-6.482-11.272-11.045-24.515-2.672-15.142-3.643-31.948.41-18.114 1.753-37.036 1.778-19.195 3.453-38.099 1.054-18.056 1.06-34.816-1.392-15.09-4.371-28.292-4.629-11.262-10.802-20.677-8.031-15.691-.826-32.394 8.134-8.437 16.676-16.49 8.912-7.675 18.175-15.007 9.57-7.03 19.396-13.809 10.02-6.59 20.153-13.081 10.17-6.442 20.296-12.927 9.998-6.61 19.81-13.403 9.549-7.051 18.783-14.411 15.875.05 30.763.98 13.681 1.987 26.016 5.133 11.003 4.305 20.743 9.64 8.68 6.146 16.58 12.815 7.407 6.857 14.686 13.532 7.478 6.157 15.45 11.482 8.704 4.264 18.294 7.296 16.27 2.018 22.007 2.28" opacity=".47" stroke-dasharray="7 7"/><path d="M529.405 302.982q5.455 10.703 11.718 20.598 6.869 9.251 14.069 18.062 7.24 8.602 14.21 17.243 6.379 8.924 11.905 18.35 4.445 10.088 7.65 20.98 1.895 11.72 2.478 24.251-.599 13.232-2.222 26.997-2.385 14.052-5.218 28.14-10.697 4.769-21.923 8.925-11.643 3.684-23.613 7.015-12.14 3.122-24.342 6.192-12.1 3.167-23.997 6.58-11.544 3.797-22.631 8.11-10.544 4.941-20.445 10.595-9.225 6.43-17.726 13.664-19.557 2.41-30.966-9.42-6.204-4.218-13.891-7.002-9.324-1.268-20.274-1.07-12.47 1.544-26.225 4.186-14.701 3.413-29.936 7.205-15.324 3.736-30.256 6.98-14.126 2.343-27.05 3.434-5.39-10.961-8.988-23.457-1.813-13.98-1.994-29.3 1.19-16.413 3.41-33.577 2.807-17.512 5.774-34.964 2.64-16.976 4.548-33.09.838-14.938.322-28.465-2-11.973-5.518-22.374-4.265-16.66 4.261-31.875 8.175-7.104 16.69-13.84 8.824-6.37 17.94-12.412 9.368-5.756 18.949-11.273 9.747-5.344 19.592-10.561 9.879-5.18 19.737-10.382 9.773-5.3 19.406-10.757 9.435-5.681 18.625-11.654 13.976 1.983 26.822 4.861 11.618 3.845 21.98 8.655 9.182 5.694 17.32 12.126 7.32 6.955 14.086 14.174 6.511 7.204 13.069 14.113 6.896 6.356 14.356 11.932 8.227 4.63 17.34 8.195 15.496 3.202 20.958 3.91" opacity=".51" stroke-dasharray="10 1"/><path d="M527.681 323.192q4.242 10.067 9.23 19.449 5.564 8.801 11.492 17.173 6.026 8.106 11.906 16.136 5.443 8.15 10.201 16.574 3.873 8.863 6.68 18.292 1.626 10.043 2.026 20.737-.773 11.317-2.637 23.168-2.788 12.256-6.271 24.756-10.329 3.358-21.037 6.238-11 2.5-22.199 4.723-11.322 2.079-22.65 4.135-11.255 2.166-22.334 4.563-10.803 2.739-21.268 5.936-10.03 3.747-19.6 8.112-9.041 5.054-17.526 10.817-19.977.586-32.277-10.081-6.868-3.517-15.151-5.823-9.735-1.093-20.859-1.056-12.346 1.023-25.691 2.814-14.005 2.295-28.32 4.791-14.23 2.38-28.01 4.327-12.956 1.214-24.792 1.456-4.302-10.475-6.968-22.103-1.038-12.776-.55-26.584 1.81-14.682 4.67-30.017 3.58-15.725 7.498-31.52 3.869-15.58 7.312-30.645 2.678-14.29 4.327-27.588.407-12.157-.548-23.081-.38-17.225 9.407-30.954 8.104-5.849 16.468-11.342 8.62-5.16 17.485-10.017 9.063-4.58 18.297-8.94 9.376-4.19 18.823-8.27 9.496-4.018 18.988-8.057 9.429-4.105 18.754-8.344 9.18-4.43 18.19-9.096 11.742 3.71 22.357 8.236 9.463 5.308 17.844 11.357 7.4 6.675 14.024 13.82 6.045 7.423 11.775 14.913 5.691 7.355 11.58 14.345 6.321 6.47 13.279 12.223 7.72 4.942 16.314 9.001 14.613 4.283 19.761 5.426" opacity=".54" stroke-dasharray="5 9"/><path d="M523.373 341.967q3.118 9.313 6.927 18.039 4.352 8.223 9.083 16.04 4.895 7.54 9.736 14.925 8.297 15.013 14.519 30.75 1.518 8.524 1.962 17.543-.652 9.502-2.382 19.476-2.694 10.384-6.244 21.104-9.791 2.14-19.83 3.905-10.242 1.478-20.606 2.75-10.426 1.18-20.854 2.375-10.348 1.297-20.558 2.803-10.015 1.82-19.763 4.027-9.438 2.674-18.52 5.89-8.708 3.798-17 8.208-13.298 4.707-22.893-1.348-11.978-8.412-27.6-14.01-9.976-1.153-21.08-1.49-12.038.352-24.776 1.226-13.173 1.174-26.461 2.447-13.1 1.124-25.686 1.899-18.808-4.98-27.625-20.837-.36-11.506.67-23.81 2.27-12.968 5.56-26.477 4.076-13.86 8.625-27.878 4.712-13.969 9.276-27.672 4.102-13.243 7.488-25.845 2.453-11.818 3.788-22.754 3.326-17.176 14.207-29.37 7.905-4.67 16.028-9.028 8.32-4.043 16.834-7.809 8.674-3.523 17.472-6.84 8.912-3.165 17.9-6.213 9.013-2.992 18.04-5.981 8.994-3.04 17.908-6.182 8.829-3.29 17.525-6.78 9.355 5.111 17.692 10.858 7.364 6.342 13.855 13.177 5.773 7.236 11.018 14.725 4.92 7.596 9.739 15.128 10.461 14.027 22.41 26.605 7.18 5.192 15.188 9.66 13.628 5.248 18.428 6.764" opacity=".58" stroke-dasharray="8 5"/><path d="M516.65 358.927q4.851 16.412 11.755 31.128 7.74 13.636 14.923 26.933 5.201 13.712 7.293 28.465-1.646 16.125-7.038 33.649-18.397 1.94-37.273 3.05-18.986.895-37.734 2.231-18.151 2.377-35.419 6.321-16.181 5.893-31.131 13.95-8.757-10.631-21.42-18.44-16.983-4.859-37.804-7.119-23.481-.462-47.836-.215-23.27-.271-43.613-2.192-3.335-18.69-1.671-39.714 6.083-22.999 15.272-47.208 10.44-24.373 20.169-47.807 7.228-21.497 10.72-40.418 14.733-8.095 30.134-15.005 16.014-5.822 32.519-10.794 16.82-4.393 33.777-8.542 16.902-4.266 33.535-8.99 13.197 12.582 23.446 26.699 8.415 14.932 16.405 29.805 8.973 13.929 20.094 26.189 13.957 10.144 30.897 18.024" opacity=".62" stroke-dasharray="7 2"/><path d="M507.787 373.71q3.078 14.644 8.037 27.908 5.937 12.292 11.768 24.103 4.545 11.855 6.826 24.23-.704 13.249-4.708 27.519-16.795.358-33.873.142-17.113-.289-34.02-.166-16.495 1.013-32.378 3.296-15.138 3.877-29.432 9.535-10.088-9.329-23.783-16.438-17.197-4.974-37.249-8.218-21.758-2.104-43.797-3.82-20.772-2.15-38.913-5.448-1.822-16.71.589-34.995 6.278-19.674 15.519-40.29 10.876-20.946 21.857-41.51 9.62-19.511 16.648-37.417 14.106-6.033 28.713-11.03 15.035-4.073 30.434-7.399 15.639-2.797 31.398-5.364 15.729-2.608 31.308-5.555 9.165 13.384 16.372 27.63 6.296 14.545 12.845 28.782 7.869 13.357 17.895 25.381 20.289 14.764 27.944 19.125" opacity=".66" stroke-dasharray="11 10"/><path d="M497.094 386.054q1.601 12.794 4.897 24.54 4.338 10.92 8.896 21.335 3.896 10.256 6.295 20.666.218 10.875-2.194 22.379-15.112-.875-30.35-2.1-15.24-1.2-30.33-2.02-14.802-.106-29.216.807-13.924 2.171-27.291 5.767-11.225-8.35-25.428-15.12-16.816-5.352-35.557-9.61-19.691-3.585-39.221-6.977-18.227-3.685-34.162-8.126-.564-14.647 2.353-30.277 6.183-16.53 15.039-33.748 10.647-17.552 21.994-35.044 10.902-17.008 20.306-33.152 13.29-4.178 26.92-7.49 13.924-2.525 28.102-4.43 14.346-1.445 28.79-2.67 14.437-1.212 28.803-2.633 5.855 13.323 10.678 27.028 4.674 13.709 10.075 27.026 6.888 12.587 15.808 24.167 18.019 15.059 24.793 19.682" opacity=".7" stroke-dasharray="6 2"/><path d="M484.96 395.741q.443 10.953 2.357 21.144 2.939 9.548 6.326 18.653 3.184 8.854 5.54 17.672-6.21 12.73-26.78 14.541-13.39-1.867-26.684-3.397-13.11-.97-25.982-1.144-12.566.778-24.803 2.647-11.864-7.703-25.922-14.379-15.814-5.825-32.757-11.006-17.316-4.793-34.193-9.492-15.644-4.873-29.387-10.17.423-12.542 3.607-25.638 5.841-13.641 13.979-27.714 9.882-14.353 20.79-28.774 11.14-14.252 21.706-28.127 12.263-2.558 24.75-4.4 12.682-1.212 25.512-1.915 12.96-.324 25.983-.438 13.039-.066 26.033-.244 3.418 12.572 6.554 25.243 3.523 12.54 8.038 24.728 5.996 11.634 13.815 22.596 15.654 14.903 21.518 19.614" opacity=".73" stroke-dasharray="9 3"/><path d="M471.784 402.69q.862 17.59 4.456 33.87-.681 21.426-17.135 25.37-11.587-2.308-23.107-4.334-11.417-1.587-22.699-2.6-11.114-.303-22.041.193-11.794-7.292-25.01-13.994-14.215-6.23-28.961-12.098-14.735-5.646-28.9-11.23-13.083-5.654-24.64-11.502 1.131-10.478 4.356-21.222 5.298-11.016 12.471-22.268 8.734-11.434 18.58-22.945 10.475-11.495 21.02-22.873 11.055-1.173 22.25-1.793 11.3-.132 22.694.136 11.475.567 22.984 1.32 11.53.843 23.045 1.626 1.836 11.34 3.92 22.644 2.77 11.162 6.601 22.075 5.185 10.553 11.918 20.7 13.259 14.304 18.198 18.926" opacity=".77" stroke-dasharray="2 9"/><path d="M457.976 406.88q-.61 14.493 1.127 28.161-.57 17.689-14.148 19.98-9.821-2.533-19.596-4.84-9.723-1.991-19.39-3.576-9.579-1.092-19.067-1.632-10.955-6.968-22.66-13.623-12.15-6.41-24.433-12.626-12.039-6.093-23.5-12.118-14.511-13.291-15.348-29.152 4.622-8.68 10.666-17.46 7.329-8.855 15.691-17.767 9.13-8.924 18.702-17.819 9.685-.06 19.426.288 9.808.7 19.664 1.698 9.893 1.224 19.813 2.616 15.408 7.128 22.423 22.545 2.318 9.684 5.625 19.218 4.432 9.351 10.077 18.496 10.902 13.268 14.928 17.61" opacity=".81" stroke-dasharray="3 2"/><path d="M443.914 408.405q-1.9 11.658-1.302 22.719-5.083 13.1-28.289 10.627-16.062-4.082-32.001-6.91-19.113-12.953-38.559-25.375-18.219-12.07-33.779-23.929 4.553-13.293 13.253-26.59 12.473-13.315 27.767-26.635 16.348 1.797 32.794 4.57 16.505 3.429 33.03 7.178 2.13 16.365 7.031 32.62 8.295 16.019 20.055 31.725" opacity=".85" stroke-dasharray="1 6"/><path d="M430.001 407.435q-2.259 17.467-.898 34.364-12.75-5.012-25.495-9.713-12.724-4.152-25.442-7.545-14.742-11.694-29.127-23.095-13.25-11.113-24.675-21.972 4.108-9.882 10.819-19.615 9.234-9.612 20.63-19.127 13.085 2.695 26.173 6.01 13.105 3.744 26.216 7.749 2.157 13.15 6.417 26.38Q425.59 400.79 430 407.435" opacity=".89" stroke-dasharray="1 5"/><path d="M416.528 404.197q-8.09 16.86-22.444 16.97-9.42-3.776-18.86-7.15-10.099-9.708-19.696-19.23-10.954-17.29-8.321-31.995 14.872-8.303 33.206-6.727 9.672 3.547 19.324 7.284 2.244 9.987 5.791 20.141 7.931 15.494 11 20.707" opacity=".92" stroke-dasharray="3 10"/><path d="M403.743 398.966q-10.236 9.167-29.46 4.473-11.201-13.87-20.691-27.238 5.43-8.424 13.36-16.442 12.617 5.338 25.176 11.143 8.134 20.93 11.615 28.064" opacity=".96" stroke-dasharray="5 4"/></g></svg>